<?xml version="1.0" standalone="no"?>
<!DOCTYPE svg PUBLIC "-//W3C//DTD SVG 20010904//EN"
 "http://www.w3.org/TR/2001/REC-SVG-20010904/DTD/svg10.dtd">
<svg version="1.0" xmlns="http://www.w3.org/2000/svg"
 width="2500.000000pt" height="2500.000000pt" viewBox="0 0 2500.000000 2500.000000"
 preserveAspectRatio="xMidYMid meet">
<metadata>
Created by potrace 1.16, written by Peter Selinger 2001-2019
</metadata>
<g transform="translate(0.000000,2500.000000) scale(0.100000,-0.100000)"
fill="#000000" stroke="none">
<path d="M5180 23764 c-117 -11 -267 -37 -315 -55 -101 -38 -186 -122 -221
-221 -48 -134 -72 -426 -55 -668 22 -303 50 -393 180 -570 403 -550 717 -1011
935 -1375 148 -248 370 -682 411 -807 51 -154 29 -324 -119 -923 -263 -1062
-637 -2032 -1149 -2973 -60 -112 -120 -230 -133 -261 -54 -134 -85 -466 -66
-720 31 -415 78 -491 397 -647 94 -46 181 -94 192 -106 31 -33 42 -68 64 -198
14 -80 30 -136 53 -185 32 -68 51 -94 208 -286 99 -122 198 -270 253 -382 39
-78 45 -97 45 -153 0 -36 -7 -81 -15 -101 -60 -143 -323 -399 -592 -576 -296
-194 -694 -388 -1173 -571 -96 -37 -209 -84 -249 -104 -84 -41 -176 -124 -209
-188 -102 -200 -107 -874 -8 -1090 56 -121 123 -176 369 -300 454 -229 704
-400 963 -658 156 -156 245 -266 329 -408 62 -105 138 -273 165 -369 31 -105
36 -309 16 -575 -9 -116 -16 -264 -16 -330 -1 -161 -14 -297 -45 -454 -40
-209 -50 -284 -141 -1120 -83 -768 -86 -805 -91 -1092 -11 -596 49 -811 251
-907 156 -75 536 -99 872 -56 176 23 260 60 341 148 66 72 92 117 378 667 147
283 278 529 291 547 13 17 39 40 57 52 35 21 344 111 383 111 45 0 49 -20 30
-163 -24 -193 -33 -345 -52 -897 -21 -616 -23 -1163 -5 -1318 43 -378 129
-521 346 -575 218 -56 692 -56 910 0 137 34 234 121 325 292 113 211 133 229
187 169 17 -18 49 -54 72 -80 23 -25 82 -75 132 -110 108 -76 130 -113 155
-263 18 -111 240 -1040 280 -1175 41 -138 96 -242 170 -319 50 -54 1300 -1074
1539 -1256 70 -53 177 -101 265 -119 269 -54 737 -42 936 24 33 11 90 40 125
63 96 63 1505 1202 1574 1272 78 79 124 160 168 293 43 129 258 1013 287 1179
36 206 41 215 172 306 37 26 102 85 145 132 42 47 84 85 93 85 26 0 65 -49
110 -140 154 -308 243 -361 651 -391 276 -21 605 15 719 77 120 65 188 185
225 394 39 226 44 532 20 1295 -19 617 -32 868 -54 1041 -10 76 -16 147 -13
157 8 33 49 30 210 -13 179 -49 241 -77 276 -129 13 -20 142 -263 286 -541
144 -278 282 -536 306 -573 119 -183 228 -232 579 -258 177 -13 414 -2 565 27
295 56 382 218 397 744 7 276 -3 421 -97 1296 -86 798 -105 950 -145 1139 -20
93 -28 169 -35 335 -5 118 -17 337 -26 485 -14 220 -15 289 -6 372 39 342 281
736 645 1049 228 196 446 337 804 520 237 122 272 144 332 209 78 84 110 185
130 405 29 312 -1 647 -69 787 -61 124 -154 184 -480 309 -751 287 -1250 575
-1566 906 -152 159 -201 250 -191 351 9 96 137 316 302 517 204 250 224 286
255 465 22 126 41 184 71 211 10 9 78 44 152 79 331 154 393 242 428 605 14
151 6 452 -16 595 -22 144 -43 199 -156 406 -592 1080 -999 2186 -1275 3464
-30 137 -37 193 -38 285 -1 152 14 196 175 520 235 470 543 954 1074 1685 202
279 215 298 244 373 47 119 75 438 60 672 -23 357 -79 487 -244 564 -197 94
-814 102 -1085 14 -133 -43 -617 -296 -940 -491 -918 -555 -1666 -1216 -2249
-1987 -283 -374 -477 -679 -525 -825 -45 -138 -67 -494 -47 -745 15 -184 22
-222 81 -460 26 -107 56 -251 65 -320 22 -150 25 -477 6 -620 -36 -284 -144
-617 -313 -969 -55 -114 -79 -154 -121 -195 -46 -45 -185 -121 -1187 -650
-624 -330 -1166 -618 -1205 -641 -157 -94 -169 -95 -308 -11 -51 30 -598 322
-1217 649 -1218 644 -1198 631 -1265 751 -97 173 -231 508 -291 723 -67 246
-79 336 -79 633 0 302 11 386 90 695 59 229 65 280 72 565 4 188 2 276 -10
380 -28 234 -63 315 -272 630 -574 865 -1268 1556 -2167 2158 -360 241 -678
426 -1053 613 -231 115 -297 137 -460 159 -92 12 -454 21 -535 14z m451 -313
c395 -200 656 -351 989 -572 922 -614 1659 -1371 2208 -2270 l70 -117 -29 -93
c-77 -242 -142 -548 -175 -819 -28 -223 -26 -698 4 -918 74 -549 242 -1047
524 -1555 56 -100 64 -110 112 -134 58 -29 1510 -795 2116 -1116 l405 -215
275 -584 c151 -321 299 -635 329 -698 l53 -115 42 90 c24 50 172 365 330 700
l287 610 182 96 c421 220 2229 1175 2307 1218 83 45 86 48 133 131 171 298
329 677 417 995 205 747 192 1480 -42 2267 l-40 137 32 57 c17 31 72 119 120
195 655 1026 1566 1860 2755 2523 168 94 616 318 622 312 3 -3 -10 -24 -30
-48 -19 -24 -108 -144 -199 -268 -824 -1126 -1255 -1892 -1412 -2512 l-32
-128 28 -162 c216 -1260 566 -2425 1048 -3478 132 -288 440 -883 528 -1017 14
-22 12 -24 -49 -52 -1618 -729 -2458 -1162 -3175 -1637 -1353 -896 -2104
-1926 -2373 -3255 -51 -248 -97 -620 -102 -821 -1 -38 -5 -68 -9 -68 -3 0 -42
13 -86 29 -142 52 -230 65 -434 65 -146 0 -215 -5 -328 -23 -79 -13 -140 -27
-135 -31 4 -4 64 -26 132 -49 439 -148 843 -358 1075 -557 64 -54 78 -63 72
-43 -3 13 -12 81 -18 151 -34 364 83 830 295 1178 l52 85 265 137 c274 142
828 411 1007 489 l102 44 25 105 c30 130 70 353 93 525 25 190 25 663 0 794
-21 109 -36 80 128 251 618 643 1328 1158 2265 1643 196 102 551 270 556 264
2 -2 -33 -46 -78 -98 -303 -349 -502 -709 -574 -1039 -29 -132 -26 -414 5
-534 136 -522 599 -972 1416 -1376 278 -137 739 -329 943 -392 23 -7 41 -17
39 -21 -1 -5 -68 -39 -147 -77 -1128 -529 -1735 -1259 -1831 -2199 -24 -238
-1 -610 56 -886 9 -43 14 -79 12 -81 -2 -2 -46 21 -98 53 -288 174 -631 291
-948 323 -110 11 -299 12 -342 1 l-26 -6 136 -253 136 -254 597 -302 c329
-166 600 -305 603 -308 4 -3 22 -152 41 -330 48 -449 99 -929 144 -1353 21
-198 37 -361 36 -363 -2 -1 -163 304 -357 679 -237 456 -361 684 -374 690 -11
5 -261 74 -555 153 -294 80 -751 203 -1015 275 -264 71 -583 157 -710 191
-126 34 -235 67 -242 74 -6 6 -68 256 -138 555 -70 300 -137 587 -150 639
l-23 94 137 116 c75 64 439 373 809 686 l672 569 -6 36 c-50 301 -154 771
-254 1146 -60 224 -157 564 -185 645 l-15 45 5 -43 c31 -258 21 -717 -20 -977
-3 -16 -14 -88 -26 -160 -39 -248 -129 -659 -147 -676 -9 -9 -363 -288 -787
-619 -423 -332 -776 -608 -783 -614 -10 -9 -7 -90 13 -401 55 -851 66 -1026
110 -1715 25 -393 46 -724 48 -735 1 -11 67 170 147 402 80 233 148 423 151
423 4 0 251 -248 549 -550 l543 -551 8 -312 c5 -172 13 -454 18 -627 6 -173
13 -423 16 -555 3 -132 8 -261 11 -288 3 -29 1 -47 -6 -47 -5 0 -10 5 -10 11
0 17 -112 241 -186 374 -178 319 -409 612 -614 780 -76 62 -79 63 -248 44
-190 -20 -350 -78 -439 -157 l-42 -37 -64 -363 c-36 -200 -66 -364 -68 -366
-2 -1 -391 -256 -864 -566 -473 -310 -867 -570 -875 -578 -11 -11 -11 -13 -1
-7 28 16 1315 554 1318 551 3 -3 -37 -172 -213 -896 l-84 -345 -37 -33 c-21
-19 -299 -244 -618 -501 -319 -258 -664 -536 -766 -619 l-187 -150 -803 648
-804 648 -51 214 c-69 284 -198 819 -228 941 -16 69 -20 97 -11 93 32 -12
1311 -549 1320 -554 6 -3 8 -3 5 1 -5 6 -188 125 -1135 746 -330 217 -605 399
-612 405 -11 10 -26 88 -103 526 -17 96 -33 184 -35 195 -6 25 -92 89 -170
126 -88 42 -203 68 -357 81 l-136 12 -69 -59 c-275 -238 -495 -539 -720 -985
l-93 -185 0 55 c0 30 4 186 10 345 5 160 17 547 25 860 l17 570 76 80 c237
247 1013 1027 1017 1023 5 -5 252 -713 280 -803 l13 -40 6 55 c3 30 8 98 11
150 3 52 35 552 70 1110 36 558 73 1130 82 1271 9 141 14 263 11 271 -3 7
-363 294 -800 637 l-794 623 -62 311 c-73 363 -96 510 -117 737 -23 254 -18
629 11 775 34 169 -141 -428 -245 -835 -96 -377 -212 -930 -210 -1001 0 -19
156 -156 775 -679 426 -360 788 -666 805 -680 l30 -26 -111 -474 c-61 -261
-120 -515 -131 -565 -12 -49 -31 -128 -43 -174 l-21 -84 -120 -32 c-66 -18
-464 -126 -885 -240 -1107 -299 -1534 -415 -1537 -418 -4 -5 -613 -1178 -661
-1274 -45 -89 -68 -119 -57 -70 3 12 14 108 25 212 53 496 162 1517 177 1659
l17 158 602 301 602 301 136 255 c75 140 133 257 130 260 -14 14 -373 4 -478
-13 -286 -47 -585 -159 -849 -320 -43 -26 -80 -46 -82 -44 -2 1 5 44 15 93
144 700 49 1347 -274 1858 -182 288 -462 577 -776 798 -245 173 -532 336 -817
462 -59 27 -81 47 -49 47 18 0 240 81 431 158 1091 437 1740 947 1929 1513 46
139 59 224 59 384 -1 121 -6 172 -26 265 -70 324 -259 666 -570 1028 -48 56
-85 102 -82 102 12 0 253 -114 458 -216 744 -372 1370 -785 1932 -1274 195
-170 588 -568 580 -589 -3 -9 -14 -61 -22 -116 -21 -125 -23 -508 -4 -675 26
-238 109 -693 129 -711 4 -4 90 -44 192 -90 102 -46 408 -194 680 -330 l495
-247 53 -88 c148 -246 246 -522 288 -806 13 -87 15 -154 11 -293 -3 -99 -10
-197 -15 -218 l-10 -37 39 32 c300 249 667 442 1131 594 65 22 117 42 118 45
0 10 -187 39 -330 51 -225 18 -465 -12 -606 -76 l-52 -24 -6 97 c-48 715 -185
1286 -440 1841 -460 998 -1307 1826 -2656 2597 -546 312 -1320 695 -2312 1144
-164 74 -297 137 -298 141 0 4 45 87 100 185 184 326 427 821 577 1178 408
965 715 2034 903 3138 l30 179 -26 106 c-154 630 -612 1441 -1477 2612 -71 96
-140 187 -153 202 -52 59 -43 56 247 -91z"/>
<path d="M10774 7343 c7 -42 96 -734 96 -745 0 -3 51 -36 113 -72 l112 -66
314 -594 c173 -328 316 -594 318 -593 1 2 -5 48 -13 102 -15 99 -35 233 -114
765 -22 151 -52 352 -66 445 -14 94 -31 206 -38 249 l-12 79 -189 124 c-105
68 -266 173 -358 234 l-169 110 6 -38z"/>
<path d="M13888 7142 c-310 -202 -348 -230 -353 -257 -3 -16 -57 -380 -121
-808 -63 -428 -118 -786 -121 -795 -21 -60 50 69 322 583 169 319 313 586 319
593 7 7 59 41 117 75 l104 62 7 60 c4 33 25 202 47 376 45 345 44 339 34 338
-5 0 -164 -102 -355 -227z"/>
</g>
</svg>
